<svg width="70" height="70" viewBox="0 0 70 70" fill="none" xmlns="http://www.w3.org/2000/svg">
<!-- <path d="M52.5 30.625V55.7812C52.5 56.4994 52.3585 57.2106 52.0837 57.8741C51.8089 58.5376 51.4061 59.1404 50.8982 59.6482C50.3904 60.1561 49.7876 60.5589 49.1241 60.8337C48.4606 61.1085 47.7494 61.25 47.0312 61.25H14.2188C12.7683 61.25 11.3773 60.6738 10.3518 59.6482C9.32617 58.6227 8.75 57.2317 8.75 55.7812V22.9688C8.75 21.5183 9.32617 20.1273 10.3518 19.1018C11.3773 18.0762 12.7683 17.5 14.2188 17.5H37.1164" stroke="#2D2D2D" stroke-wid5" stroke-linecap="round" stroke-linejoin="round"/>
<path d="M62.8826 7.28031C62.6828 7.0608 62.4406 6.88407 62.1706 6.7608C61.9006 6.63754 61.6084 6.57029 61.3117 6.56314C61.0149 6.55598 60.7198 6.60906 60.4442 6.71917C60.1686 6.82927 59.9181 6.99412 59.708 7.20375L58.0168 8.88676C57.8118 9.09186 57.6967 9.36995 57.6967 9.6599C57.6967 9.94986 57.8118 10.228 58.0168 10.433L59.5672 11.9807C59.6688 12.0828 59.7896 12.1638 59.9226 12.2191C60.0557 12.2744 60.1983 12.3029 60.3424 12.3029C60.4864 12.3029 60.6291 12.2744 60.7621 12.2191C60.8951 12.1638 61.0159 12.0828 61.1175 11.9807L62.7664 10.3401C63.6004 9.50746 63.6783 8.15121 62.8826 7.28031ZM54.5974 12.3047L29.917 36.9414C29.7673 37.0905 29.6586 37.2755 29.6011 37.4788L28.4595 40.8789C28.4322 40.9712 28.4303 41.0691 28.4539 41.1624C28.4776 41.2557 28.526 41.3408 28.5941 41.4089C28.6621 41.4769 28.7473 41.5253 28.8405 41.549C28.9338 41.5727 29.0317 41.5707 29.124 41.5434L32.5215 40.4018C32.7247 40.3444 32.9097 40.2356 33.0588 40.086L57.6955 15.4028C57.9234 15.1724 58.0513 14.8614 58.0513 14.5373C58.0513 14.2133 57.9234 13.9023 57.6955 13.6719L56.3351 12.3047C56.1045 12.0747 55.792 11.9456 55.4663 11.9456C55.1405 11.9456 54.8281 12.0747 54.5974 12.3047V12.3047Z" fill="#2D2D2D"/> -->
<path d="M52.5 30.625V55.7812C52.5 56.4994 52.3585 57.2106 52.0837 57.8741C51.8089 58.5376 51.4061 59.1404 50.8982 59.6482C50.3904 60.1561 49.7876 60.5589 49.1241 60.8337C48.4606 61.1085 47.7494 61.25 47.0312 61.25H14.2188C12.7683 61.25 11.3773 60.6738 10.3518 59.6482C9.32617 58.6227 8.75 57.2317 8.75 55.7812V22.9688C8.75 21.5183 9.32617 20.1273 10.3518 19.1018C11.3773 18.0762 12.7683 17.5 14.2188 17.5H37.1164" stroke="#2D2D2D" stroke-width="5" stroke-linecap="round" stroke-linejoin="round"/>
<path d="M62.8826 7.28031C62.6828 7.0608 62.4406 6.88407 62.1706 6.7608C61.9006 6.63754 61.6084 6.57029 61.3117 6.56314C61.0149 6.55598 60.7198 6.60906 60.4442 6.71917C60.1686 6.82927 59.9181 6.99412 59.708 7.20375L58.0168 8.88676C57.8118 9.09186 57.6967 9.36995 57.6967 9.6599C57.6967 9.94986 57.8118 10.228 58.0168 10.433L59.5672 11.9807C59.6688 12.0828 59.7896 12.1638 59.9226 12.2191C60.0557 12.2744 60.1983 12.3029 60.3424 12.3029C60.4864 12.3029 60.6291 12.2744 60.7621 12.2191C60.8951 12.1638 61.0159 12.0828 61.1175 11.9807L62.7664 10.3401C63.6004 9.50746 63.6783 8.15121 62.8826 7.28031ZM54.5974 12.3047L29.917 36.9414C29.7673 37.0905 29.6586 37.2755 29.6011 37.4788L28.4595 40.8789C28.4322 40.9712 28.4303 41.0691 28.4539 41.1624C28.4776 41.2557 28.526 41.3408 28.5941 41.4089C28.6621 41.4769 28.7473 41.5253 28.8405 41.549C28.9338 41.5727 29.0317 41.5707 29.124 41.5434L32.5215 40.4018C32.7247 40.3444 32.9097 40.2356 33.0588 40.086L57.6955 15.4028C57.9234 15.1724 58.0513 14.8614 58.0513 14.5373C58.0513 14.2133 57.9234 13.9023 57.6955 13.6719L56.3351 12.3047C56.1045 12.0747 55.792 11.9456 55.4663 11.9456C55.1405 11.9456 54.8281 12.0747 54.5974 12.3047V12.3047Z" fill="#2D2D2D"/>
</svg>
