<svg width="24" height="24" viewBox="0 0 24 24" fill="none" xmlns="http://www.w3.org/2000/svg">
<path d="M12 21C16.9707 21 21 16.9707 21 12C21 7.0293 16.9707 3 12 3C7.0293 3 3 7.0293 3 12C3 16.9707 7.0293 21 12 21Z" stroke="#80C8FF" stroke-width="1.8" stroke-linejoin="round"/>
<path d="M10.65 10.65C10.65 10.65 10.2 8.84998 8.85005 8.84998C7.50005 8.84998 7.05005 10.65 7.05005 10.65M16.95 10.65C16.95 10.65 16.5 8.84998 15.15 8.84998C13.8 8.84998 13.35 10.65 13.35 10.65M12 16.95C14.25 16.95 15.15 15.15 15.15 15.15H8.85005C8.85005 15.15 9.75005 16.95 12 16.95Z" stroke="#80C8FF" stroke-width="1.8" stroke-linecap="round" stroke-linejoin="round"/>
</svg>
