<svg width="70" height="70" viewBox="0 0 70 70" fill="none" xmlns="http://www.w3.org/2000/svg">
<path d="M58.8041 47.5645C57.9018 46.7305 56.5756 46.5254 55.4408 46.334C53.8686 46.0742 53.267 45.7871 52.351 44.9668C50.3959 43.2305 50.3959 40.7148 52.351 38.9785L56.4936 35.3008C62.8373 29.6953 62.8373 20.5078 56.4936 14.9023C51.8178 10.7871 45.5424 8.75 39.0209 8.75C31.4057 8.75 23.4486 11.5254 17.31 16.9668C5.89395 27.0566 5.89395 43.5859 17.31 53.6758C22.9838 58.6934 30.64 61.1953 38.2143 61.25H38.4467C46.0209 61.25 53.4857 58.8027 58.7904 54.0859C60.7592 52.3496 60.4297 49.082 58.8041 47.5645V47.5645Z" stroke="#2D2D2D" stroke-width="4.375" stroke-miterlimit="10"/>
<path d="M19.6875 32.8125C22.1037 32.8125 24.0625 30.8537 24.0625 28.4375C24.0625 26.0213 22.1037 24.0625 19.6875 24.0625C17.2713 24.0625 15.3125 26.0213 15.3125 28.4375C15.3125 30.8537 17.2713 32.8125 19.6875 32.8125Z" fill="#2D2D2D"/>
<path d="M20.7812 46.8945C23.1975 46.8945 25.1562 44.9358 25.1562 42.5195C25.1562 40.1033 23.1975 38.1445 20.7812 38.1445C18.365 38.1445 16.4062 40.1033 16.4062 42.5195C16.4062 44.9358 18.365 46.8945 20.7812 46.8945Z" fill="#2D2D2D"/>
<path d="M30.625 24.0625C33.0412 24.0625 35 22.1037 35 19.6875C35 17.2713 33.0412 15.3125 30.625 15.3125C28.2088 15.3125 26.25 17.2713 26.25 19.6875C26.25 22.1037 28.2088 24.0625 30.625 24.0625Z" fill="#2D2D2D"/>
<path d="M35 56.7383C38.6244 56.7383 41.5625 53.8001 41.5625 50.1758C41.5625 46.5514 38.6244 43.6133 35 43.6133C31.3756 43.6133 28.4375 46.5514 28.4375 50.1758C28.4375 53.8001 31.3756 56.7383 35 56.7383Z" fill="#2D2D2D"/>
<path d="M44.8438 24.0625C47.26 24.0625 49.2188 22.1037 49.2188 19.6875C49.2188 17.2713 47.26 15.3125 44.8438 15.3125C42.4275 15.3125 40.4688 17.2713 40.4688 19.6875C40.4688 22.1037 42.4275 24.0625 44.8438 24.0625Z" fill="#2D2D2D"/>
</svg>
