<svg width="24" height="24" viewBox="0 0 24 24" fill="none" xmlns="http://www.w3.org/2000/svg">
<path d="M12 20.25C12 20.25 21.375 15 21.375 8.62501C21.375 7.49803 20.9845 6.40585 20.27 5.53431C19.5555 4.66277 18.5612 4.0657 17.4561 3.84468C16.351 3.62366 15.2034 3.79235 14.2087 4.32204C13.2139 4.85174 12.4335 5.70972 12 6.75001C11.5665 5.70972 10.7861 4.85174 9.79131 4.32204C8.79657 3.79235 7.64903 3.62366 6.54393 3.84468C5.43884 4.0657 4.44445 4.66277 3.72996 5.53431C3.01546 6.40585 2.625 7.49803 2.625 8.62501C2.625 15 12 20.25 12 20.25Z" fill="#0090FF"/>
</svg>
