<svg width="51" height="51" viewBox="0 0 51 51" fill="none" xmlns="http://www.w3.org/2000/svg">
<path d="M25.6684 3.83447C13.5875 3.83447 3.79199 13.8839 3.79199 26.2675C3.79199 36.1803 10.0619 44.5792 18.7539 47.5482C18.8758 47.5747 19.0002 47.5878 19.125 47.5872C19.9356 47.5872 20.2481 46.9915 20.2481 46.4739C20.2481 45.9368 20.2286 44.5304 20.2188 42.6553C19.4952 42.8249 18.7549 42.9134 18.0116 42.919C13.8024 42.919 12.8453 39.6473 12.8453 39.6473C11.8491 37.0592 10.4135 36.3658 10.4135 36.3658C8.50909 35.0279 10.4037 34.9888 10.5502 34.9888H10.56C12.7574 35.1841 13.9098 37.3132 13.9098 37.3132C15.0036 39.2273 16.4686 39.7645 17.7773 39.7645C18.6426 39.7472 19.4945 39.5475 20.2774 39.1785C20.4727 37.7331 21.0392 36.7467 21.6642 36.1803C16.8104 35.6138 11.7027 33.6899 11.7027 25.0956C11.7027 22.6443 12.5523 20.6422 13.9489 19.0796C13.7243 18.5131 12.9723 16.2278 14.1637 13.1417C14.3236 13.1035 14.4878 13.087 14.6521 13.0929C15.4431 13.0929 17.2303 13.3956 20.1798 15.4465C23.7635 14.4438 27.5537 14.4438 31.1375 15.4465C34.0869 13.3956 35.8741 13.0929 36.6652 13.0929C36.8294 13.087 36.9937 13.1035 37.1535 13.1417C38.345 16.2278 37.593 18.5131 37.3683 19.0796C38.7649 20.6519 39.6146 22.654 39.6146 25.0956C39.6146 33.7094 34.4971 35.6041 29.6237 36.1607C30.405 36.8541 31.1082 38.2214 31.1082 40.3114C31.1082 43.3096 31.0789 45.7317 31.0789 46.4641C31.0789 46.9915 31.3816 47.5872 32.1922 47.5872C32.3235 47.5878 32.4544 47.5747 32.5829 47.5482C41.2846 44.5792 47.5448 36.1705 47.5448 26.2675C47.5448 13.8839 37.7492 3.83447 25.6684 3.83447Z" fill="black"/>
</svg>
