<svg width="51" height="51" viewBox="0 0 51 51" fill="none" xmlns="http://www.w3.org/2000/svg">
<path fill-rule="evenodd" clip-rule="evenodd" d="M8.92701 10.0845H41.7416C43.8991 10.0845 45.6481 11.8335 45.6481 13.991V37.43C45.6481 39.5875 43.8991 41.3365 41.7416 41.3365H8.92701C6.76951 41.3365 5.02051 39.5875 5.02051 37.43V13.991C5.02051 11.8335 6.76951 10.0845 8.92701 10.0845ZM12.2303 15.1014C11.5491 14.5716 10.5674 14.6943 10.0375 15.3755C9.50771 16.0567 9.63043 17.0385 10.3116 17.5683L24.375 28.5065C24.9393 28.9454 25.7294 28.9454 26.2937 28.5065L40.3571 17.5683C41.0383 17.0385 41.161 16.0567 40.6312 15.3755C40.1014 14.6943 39.1196 14.5716 38.4384 15.1014L25.3344 25.2935L12.2303 15.1014Z" fill="black"/>
</svg>
