<svg width="79" height="28" viewBox="0 0 79 28" fill="none" xmlns="http://www.w3.org/2000/svg">
<path d="M7.84032 2.22548C7.79022 2.3591 7.2808 3.75373 6.71293 5.34044C6.1367 6.92715 5.59388 8.42199 5.50202 8.65582C5.41851 8.898 5.26819 9.30721 5.17633 9.55774C5.08446 9.80827 4.93414 10.2258 4.84228 10.4764C4.75042 10.7269 4.6001 11.1444 4.50824 11.395C4.41638 11.6455 4.26606 12.0547 4.18255 12.2885C4.09068 12.5307 3.44765 14.3095 2.75451 16.2386C1.45174 19.8463 1.20956 20.5227 1.07594 20.8568C0.900567 21.3077 0.800354 21.291 3.49776 21.291H6.00308L6.45404 19.888L6.91335 18.4934L9.77778 18.4684L12.6506 18.4517L12.8343 19.0112C12.9345 19.3285 13.1349 19.9632 13.2769 20.4309L13.5441 21.291H18.5548L18.5047 21.0572C18.4713 20.9319 18.3711 20.6313 18.2875 20.3891C18.1957 20.1553 18.0454 19.7461 17.9535 19.4955C17.8616 19.245 17.7113 18.8358 17.6278 18.5936C17.5359 18.3598 17.0516 17.0153 16.5422 15.6123C16.0411 14.2093 15.5651 12.8982 15.4899 12.6894C15.4148 12.4806 15.2978 12.1633 15.2394 11.9796C15.1726 11.7958 15.0306 11.4033 14.9221 11.1027C14.8051 10.8021 14.5379 10.0672 14.3291 9.47423C14.112 8.87295 13.8615 8.19651 13.778 7.97103C13.6944 7.7372 13.1767 6.30917 12.6255 4.79762L11.6234 2.04176L9.77778 2.0167L7.93219 2L7.84032 2.22548ZM10.8133 12.5641C11.0722 13.3909 11.306 14.1341 11.3311 14.2093C11.3728 14.3513 11.2643 14.3596 9.83624 14.3596H8.29128L9.09299 11.9879L9.88634 9.6162L10.1118 10.3427C10.2371 10.7352 10.5461 11.7374 10.8133 12.5641Z" fill="white"/>
<path fill-rule="evenodd" clip-rule="evenodd" d="M6.90893 1.8612L6.904 1.87436C6.85101 2.01566 6.33981 3.41533 5.77221 5.00123C5.19149 6.60032 4.65679 8.07249 4.57127 8.29017L4.56354 8.30985L4.55665 8.32983C4.48034 8.55111 4.3428 8.92618 4.24908 9.18176L4.23745 9.21349C4.19092 9.3404 4.12993 9.50862 4.06984 9.67441L4.06917 9.67625C4.00839 9.84392 3.94856 10.009 3.90341 10.1321C3.85684 10.2591 3.79581 10.4275 3.73568 10.5933L3.73512 10.5949C3.67435 10.7625 3.61452 10.9276 3.56936 11.0507C3.56059 11.0746 3.55125 11.1001 3.54145 11.1268C3.45091 11.3737 3.32139 11.7268 3.2439 11.9435C3.13628 12.2292 2.49623 14.0001 1.81369 15.8997C1.64247 16.3739 1.48968 16.7971 1.35314 17.1752C0.445879 19.6882 0.256311 20.2133 0.147463 20.4854L0.143892 20.4943C0.14299 20.4966 0.141219 20.5012 0.138707 20.5075C0.125107 20.5415 0.0910496 20.6266 0.0704769 20.6882C0.047674 20.7565 -0.0256275 20.9761 0.00948707 21.2446C0.0559811 21.6 0.261801 21.8732 0.516074 22.0354C0.71489 22.1622 0.918996 22.2068 1.03254 22.2272C1.27085 22.2701 1.58662 22.2812 1.9418 22.2865C2.2647 22.2913 2.68568 22.2912 3.22014 22.2911C3.30948 22.291 3.402 22.291 3.49776 22.291H6.73204L7.40498 20.1974L7.63893 19.4871L9.78359 19.4683L9.78652 19.4683L11.926 19.4559C12.0335 19.7965 12.1987 20.3218 12.32 20.7213L12.3219 20.7276L12.8077 22.291H19.7918L19.4773 20.8235L19.4709 20.7995C19.4264 20.6325 19.3129 20.2951 19.2329 20.0631L19.226 20.0431L19.2183 20.0235C19.1316 19.8027 18.9858 19.406 18.8924 19.1513L18.8808 19.1198C18.7871 18.8642 18.6495 18.489 18.5732 18.2676L18.5663 18.2476L18.5586 18.228C18.4977 18.0731 18.2394 17.3602 17.9098 16.4504C17.7764 16.0823 17.6314 15.6821 17.483 15.2735C17.0786 14.1411 16.6897 13.0663 16.5159 12.586C16.4743 12.4711 16.445 12.3902 16.4308 12.3507C16.4139 12.3037 16.396 12.2542 16.3777 12.2039C16.3076 12.0102 16.2327 11.8033 16.1923 11.6764L16.1861 11.6569L16.1792 11.6378C16.1128 11.4553 15.9712 11.0637 15.8626 10.763L15.8585 10.7516L15.8541 10.7402C15.7433 10.4555 15.4805 9.73324 15.2724 9.1421L15.2697 9.13457C15.0527 8.53363 14.803 7.85943 14.7177 7.62901C14.6269 7.37514 14.1117 5.95422 13.5651 4.45521C13.565 4.45516 13.5651 4.45527 13.5651 4.45521L12.3272 1.05122L9.78683 1.01673L7.26227 0.993896L6.90893 1.8612ZM13.778 7.97103C13.8615 8.19651 14.112 8.87295 14.3291 9.47423C14.5379 10.0672 14.8051 10.8021 14.9221 11.1027C15.0306 11.4033 15.1726 11.7958 15.2394 11.9796C15.2865 12.1276 15.3715 12.3623 15.4421 12.5571C15.4591 12.6041 15.4753 12.6488 15.4899 12.6894C15.5045 12.73 15.5343 12.8123 15.5765 12.9289C15.7512 13.4117 16.1386 14.4822 16.5422 15.6123C16.6851 16.006 16.8261 16.3952 16.957 16.7565C17.2925 17.6825 17.5617 18.4254 17.6278 18.5936C17.7074 18.8245 17.8478 19.2073 17.9403 19.4596L17.9535 19.4955C18.0336 19.7139 18.158 20.0528 18.2495 20.291C18.263 20.3261 18.2757 20.3591 18.2875 20.3891C18.3711 20.6313 18.4713 20.9319 18.5047 21.0572L18.5548 21.291H13.5441L13.2769 20.4309C13.1349 19.9632 12.9345 19.3285 12.8343 19.0112L12.6506 18.4517L9.77778 18.4684L6.91335 18.4934L6.45404 19.888L6.00308 21.291H3.49776C2.83826 21.291 2.346 21.292 1.98118 21.2869C1.97997 21.2869 1.97875 21.2869 1.97754 21.2869C1.27709 21.277 1.04814 21.2446 1.00712 21.139C0.982336 21.0753 1.0261 20.9849 1.07594 20.8568C1.19155 20.5678 1.38842 20.0224 2.28314 17.5441C2.42255 17.158 2.57889 16.7249 2.75451 16.2386C3.44765 14.3095 4.09068 12.5307 4.18255 12.2885C4.25808 12.077 4.38827 11.7221 4.48043 11.4708C4.49016 11.4443 4.49947 11.4189 4.50824 11.395C4.55417 11.2697 4.61472 11.1027 4.67527 10.9356C4.73581 10.7686 4.79635 10.6016 4.84228 10.4764C4.88822 10.3511 4.94877 10.1841 5.00931 10.017C5.06986 9.85001 5.1304 9.683 5.17633 9.55774L5.18949 9.52185C5.282 9.26957 5.42239 8.88676 5.50202 8.65582C5.59331 8.42346 6.12992 6.94582 6.7021 5.37024L6.71293 5.34044C7.2808 3.75373 7.79022 2.3591 7.84032 2.22548L7.93219 2L9.77778 2.0167L11.6234 2.04176L12.6255 4.79762C13.1767 6.30917 13.6944 7.7372 13.778 7.97103ZM10.3955 11.2464C10.525 11.6599 10.6748 12.1356 10.8133 12.5641C11.0722 13.3909 11.306 14.1341 11.3311 14.2093C11.3581 14.3012 11.3221 14.3371 10.9059 14.351C10.8858 14.3517 10.8648 14.3523 10.8429 14.3529C10.7122 14.3563 10.5487 14.358 10.3447 14.3589C10.3395 14.3589 10.3343 14.3589 10.3291 14.3589C10.1854 14.3595 10.022 14.3596 9.83624 14.3596H8.29128L9.09299 11.9879L9.88634 9.6162L10.1118 10.3427C10.1555 10.4797 10.2216 10.6908 10.3004 10.9428C10.3304 11.0387 10.3623 11.1405 10.3955 11.2464ZM9.85594 12.8536C9.85742 12.8582 9.8589 12.8628 9.86037 12.8673C9.91313 13.0358 9.96511 13.2017 10.0146 13.3595C9.95807 13.3596 9.89865 13.3596 9.83624 13.3596H9.6849L9.85594 12.8536Z" fill="black"/>
<path d="M25.4695 6.67663C24.768 6.8687 24.1584 7.16099 23.699 7.52009L23.3817 7.77062V6.67663H18.9556V21.291L21.2355 21.2743L23.507 21.2493L23.5905 11.7207L23.816 11.3783C24.4256 10.4597 25.9288 10.4597 26.5384 11.3783L26.7639 11.7207L26.8474 21.2493L29.1273 21.2743L31.3988 21.291V16.4307C31.3988 11.4033 31.3486 10.4597 31.0564 9.55775C30.7808 8.68089 29.954 7.67041 29.1523 7.19439C28.0667 6.55971 26.647 6.35928 25.4695 6.67663Z" fill="white"/>
<path fill-rule="evenodd" clip-rule="evenodd" d="M25.2093 5.71108L25.2054 5.71212C24.9214 5.78989 24.6455 5.88329 24.3817 5.99179V5.67662H17.9556V22.2984L21.2465 22.2743L24.4983 22.2384L24.5879 12.0244L24.6492 11.9312C24.6494 11.9309 24.6496 11.9306 24.6499 11.9302C24.7375 11.799 24.9221 11.6893 25.1772 11.6893C25.4322 11.6893 25.6169 11.799 25.7045 11.9302C25.7047 11.9306 25.705 11.9309 25.7052 11.9312L25.7665 12.0244L25.856 22.2384L29.1199 22.2743L32.3988 22.2984V16.4307C32.3988 11.4968 32.3616 10.3443 32.009 9.25353C31.8231 8.66481 31.4742 8.08494 31.0789 7.59661C30.6815 7.10561 30.1881 6.64641 29.6628 6.33454L29.657 6.33108C28.3491 5.56644 26.6548 5.32151 25.2093 5.71108ZM26.7639 11.7207L26.5384 11.3783C25.9288 10.4597 24.4256 10.4597 23.816 11.3783L23.5905 11.7207L23.507 21.2493L21.2355 21.2743L18.9556 21.291V6.67663H23.3817V7.77062L23.699 7.52009C23.8351 7.41372 23.9843 7.31322 24.1452 7.21945C24.2215 7.175 24.3004 7.13207 24.3817 7.09075C24.7082 6.92488 25.0742 6.78484 25.4695 6.67663C26.647 6.35928 28.0667 6.55971 29.1523 7.19439C29.954 7.67041 30.7808 8.68089 31.0564 9.55775C31.3486 10.4597 31.3988 11.4033 31.3988 16.4307V21.291L29.1273 21.2743L26.8474 21.2493L26.7639 11.7207Z" fill="black"/>
<path d="M65.6382 6.56806C64.8783 6.70168 63.9263 7.09418 63.4837 7.46998C63.35 7.58689 63.2081 7.67876 63.183 7.67876C63.158 7.67876 63.1329 7.45328 63.1329 7.17769V6.67663L60.9032 6.69333L58.6651 6.71838V21.2493L60.9449 21.2743L63.2164 21.291V16.7647C63.2164 13.7416 63.2498 12.1215 63.3083 11.8961C63.7258 10.3845 65.822 10.2509 66.4316 11.704C66.5402 11.9712 66.5569 12.656 66.5569 16.6562V21.291H71.0581L71.1082 11.9796L71.3587 11.537C71.5508 11.1862 71.6928 11.0442 72.0185 10.8772C72.8452 10.4597 73.8557 10.7687 74.2733 11.562C74.4403 11.8877 74.4486 12.013 74.4737 16.5894L74.4987 21.291H79V16.2553C79 10.5849 78.9749 10.3094 78.4488 9.22371C78.0313 8.36355 77.263 7.54514 76.5197 7.16099C75.5927 6.68498 75.0165 6.55136 73.8223 6.55971C72.3442 6.55971 71.3921 6.86035 70.3232 7.66205L69.8722 8.00445L69.4797 7.6537C68.9453 7.17769 68.3607 6.8687 67.5924 6.67663C66.9995 6.52631 66.1644 6.4762 65.6382 6.56806Z" fill="#0090FF"/>
<path d="M31.6493 6.74343C31.6493 6.80189 33.3696 11.5203 33.9625 13.107C34.0795 13.4076 34.1964 13.7416 34.2381 13.8586C34.2799 13.9755 34.4051 14.3262 34.5304 14.6519C34.7976 15.3618 35.3906 16.9986 35.4908 17.2825C35.5242 17.3994 35.6578 17.7502 35.7831 18.0759C35.9 18.3932 36.0921 18.911 36.209 19.22L36.4094 19.7711L36.209 20.3891C35.733 21.8422 35.6578 21.9007 34.4553 21.9591L33.6118 22.0009V26.0929H34.9897C36.9773 26.0846 37.7289 25.8257 38.6726 24.8235C39.2488 24.1972 39.4993 23.7295 40.0421 22.2514C40.2593 21.6501 40.4931 21.0321 40.5516 20.8735C40.9608 19.7711 41.2196 19.0613 41.4618 18.4099C41.8627 17.3076 42.9984 14.2344 43.2323 13.608C43.3408 13.3074 43.5412 12.7646 43.6749 12.3971C43.8085 12.0297 44.0089 11.4618 44.1342 11.1445C44.2511 10.8188 44.4098 10.4096 44.4766 10.2258C44.5434 10.0421 44.8524 9.19865 45.1697 8.34684C45.487 7.49503 45.7209 6.77683 45.7042 6.73508C45.6875 6.70167 44.6185 6.67662 43.3408 6.67662H41.0109L40.6685 7.76226C40.4847 8.35519 40.1841 9.34897 39.992 9.95025C39.349 12.0547 38.8229 13.7166 38.7644 13.8085C38.7227 13.8836 38.5556 13.4076 37.0274 8.69758L36.376 6.67662H34.0126C32.7099 6.67662 31.6493 6.71002 31.6493 6.74343Z" fill="white"/>
<path fill-rule="evenodd" clip-rule="evenodd" d="M33.0305 13.4694C33.1252 13.7129 33.2201 13.9801 33.2734 14.1303C33.2823 14.1553 33.29 14.177 33.2964 14.1949L33.2969 14.1962C33.3389 14.3139 33.4666 14.6715 33.5958 15.0075C33.855 15.6962 34.4236 17.2653 34.5405 17.5947C34.5988 17.782 34.7413 18.1529 34.8472 18.4282C34.9639 18.7449 35.1535 19.2562 35.2714 19.5677L35.3521 19.7897L35.2587 20.0778C35.2585 20.0783 35.2584 20.0787 35.2582 20.0792C35.1369 20.4496 35.0576 20.6782 34.988 20.8363C34.9729 20.8706 34.9601 20.8971 34.9497 20.9173C34.8499 20.9343 34.6953 20.9463 34.4067 20.9603L32.6118 21.0492V27.0929H34.9939C36.0091 27.0886 36.8314 27.0234 37.5484 26.7763C38.3046 26.5157 38.8595 26.0837 39.4006 25.5091L39.4085 25.5006C40.1191 24.7282 40.4241 24.1122 40.9808 22.5961L40.9827 22.5911C41.1424 22.1488 41.3076 21.7072 41.409 21.4361C41.4448 21.3405 41.4726 21.266 41.4895 21.2203C41.7153 20.6119 41.8909 20.1354 42.0437 19.7206C42.1728 19.3699 42.2858 19.0633 42.3991 18.7584L42.4016 18.7517C42.8013 17.6526 43.936 14.5821 44.1691 13.9578L44.1729 13.9477C44.2327 13.782 44.3178 13.5498 44.4052 13.3114C44.4778 13.1134 44.552 12.9111 44.6147 12.7389C44.6529 12.6336 44.6949 12.5171 44.738 12.3972C44.8536 12.076 44.9779 11.7305 45.0643 11.5116L45.0701 11.4971L45.0754 11.4823C45.1512 11.2712 45.2211 11.0867 45.2849 10.9186C45.3322 10.7941 45.376 10.6785 45.4164 10.5676C45.4823 10.3863 45.7904 9.54532 46.1068 8.69595C46.269 8.26049 46.4112 7.85582 46.5119 7.55035C46.5618 7.39911 46.6043 7.26366 46.6344 7.15755C46.6488 7.10674 46.6647 7.04762 46.6769 6.9907C46.6825 6.96441 46.6919 6.91758 46.6982 6.86242C46.7012 6.83552 46.7058 6.78673 46.7049 6.7265C46.7044 6.6883 46.7022 6.53753 46.6326 6.36368L46.6172 6.32507L46.5986 6.28786C46.4877 6.06613 46.3264 5.94784 46.2599 5.90318C46.1808 5.85008 46.1107 5.8195 46.073 5.80431C45.9968 5.77363 45.9326 5.75868 45.9064 5.75285C45.8467 5.73954 45.7934 5.73289 45.7659 5.72969C45.7031 5.72237 45.6317 5.71734 45.5649 5.7135C45.4259 5.7055 45.2379 5.69893 45.0197 5.69361C44.5802 5.68292 43.985 5.67662 43.3408 5.67662H40.2777L39.7133 7.46628C39.6495 7.67215 39.5733 7.92087 39.4929 8.18297C39.3368 8.69224 39.1653 9.25201 39.0394 9.64595L39.0356 9.658C38.9273 10.0123 38.8225 10.3538 38.7227 10.6772C38.5203 10.0572 38.2755 9.304 37.9789 8.39003C37.9788 8.38967 37.9787 8.38931 37.9786 8.38895L37.1043 5.67662H34.0126C33.3539 5.67662 32.753 5.68505 32.3132 5.69792C32.0949 5.70431 31.9077 5.71203 31.7701 5.72102C31.7047 5.7253 31.6324 5.73098 31.5682 5.73935C31.5421 5.74274 31.4812 5.75099 31.4124 5.76869C31.3859 5.77551 31.2988 5.79812 31.1983 5.84931C31.1502 5.87385 31.0444 5.93186 30.9381 6.03959C30.8299 6.1493 30.6493 6.38779 30.6493 6.74343C30.6493 6.84947 30.6674 6.93431 30.6696 6.94479C30.675 6.97103 30.6805 6.99289 30.6833 7.00342C30.6891 7.02567 30.6949 7.0447 30.6981 7.05508C30.705 7.07789 30.713 7.10229 30.7203 7.1239C30.7353 7.16897 30.756 7.2288 30.7805 7.29891C30.83 7.44037 30.9006 7.6386 30.9861 7.87695C31.1574 8.3544 31.3916 9.0009 31.6439 9.69413C32.1483 11.0799 32.7278 12.6595 33.0258 13.457L33.0305 13.4694ZM38.2096 12.3199C38.2806 12.5343 38.3424 12.7194 38.3962 12.8788C38.5968 13.4735 38.6859 13.7107 38.729 13.7859C38.7298 13.7874 38.7307 13.7888 38.7315 13.7902C38.7485 13.8185 38.758 13.8201 38.7644 13.8085C38.7901 13.768 38.9065 13.4235 39.0835 12.8709C39.1373 12.7029 39.1967 12.5158 39.2608 12.3122C39.4652 11.6634 39.718 10.847 39.992 9.95025C40.1195 9.55109 40.2949 8.97897 40.4521 8.46597C40.5317 8.2062 40.6067 7.96158 40.6685 7.76226L41.0109 6.67662H43.3408C43.8381 6.67662 44.3038 6.68041 44.6881 6.68702C44.6943 6.68712 44.7004 6.68723 44.7066 6.68734C45.2994 6.69774 45.6941 6.71488 45.7042 6.73508C45.7163 6.7654 45.5963 7.15248 45.4081 7.6884C45.4059 7.69478 45.4036 7.70118 45.4014 7.7076C45.3321 7.90454 45.2538 8.121 45.1697 8.34684C44.8524 9.19865 44.5434 10.0421 44.4766 10.2258C44.4502 10.2983 44.4095 10.406 44.3628 10.5297C44.291 10.7195 44.2049 10.9473 44.1342 11.1445C44.0417 11.3787 43.9082 11.7496 43.7909 12.0756C43.7494 12.1911 43.7098 12.301 43.6749 12.3971C43.6147 12.5625 43.541 12.7634 43.4683 12.9618C43.3794 13.2041 43.292 13.4427 43.2323 13.608C42.9984 14.2344 41.8627 17.3076 41.4618 18.4099C41.3509 18.7081 41.2365 19.0186 41.1058 19.3735C40.9511 19.7936 40.7734 20.2758 40.5516 20.8735C40.5367 20.9137 40.5107 20.9834 40.4765 21.0748C40.3757 21.3443 40.2042 21.8025 40.0421 22.2514C39.4993 23.7295 39.2488 24.1972 38.6726 24.8235C37.7289 25.8257 36.9773 26.0846 34.9897 26.0929H33.6118V22.0009L34.4553 21.9591C35.6578 21.9007 35.733 21.8422 36.209 20.3891L36.4094 19.7711L36.209 19.22C36.0921 18.911 35.9 18.3932 35.7831 18.0759C35.6578 17.7502 35.5242 17.3994 35.4908 17.2825C35.3906 16.9986 34.7976 15.3618 34.5304 14.6519C34.4051 14.3262 34.2799 13.9755 34.2381 13.8586C34.2324 13.8424 34.2252 13.8221 34.2167 13.7984C34.1641 13.65 34.0633 13.3661 33.9625 13.107C33.5351 11.963 32.5216 9.19136 31.9893 7.71166C31.9861 7.70271 31.9829 7.69381 31.9797 7.68496C31.7791 7.12716 31.6493 6.75949 31.6493 6.74343C31.6493 6.72305 32.0441 6.70267 32.6478 6.68987C32.6605 6.6896 32.6732 6.68934 32.6861 6.68908C33.0646 6.68137 33.5214 6.67662 34.0126 6.67662H36.376L37.0274 8.69758C37.5799 10.4004 37.9545 11.5498 38.2096 12.3199ZM32.6104 6.46956C32.6103 6.46915 32.6103 6.46925 32.6104 6.46956Z" fill="black"/>
<path d="M48.1427 6.77683C48.1093 6.87704 47.341 8.97316 46.9234 10.1006C46.8232 10.3511 46.7146 10.6517 46.6645 10.7686C46.6228 10.8772 46.1551 12.1382 45.6374 13.5663C45.1112 14.986 44.6102 16.3639 44.5183 16.6144C44.3596 17.032 44.3429 17.2574 44.3429 19.1782V21.291H52.6105V23.2953H56.9531L56.9364 17.8838L56.9113 12.4806H52.6523L52.6272 14.7104L52.6105 16.9485H49.2784L49.3954 16.6729C49.4538 16.5226 49.6292 16.0632 49.7712 15.6457C49.9215 15.2365 50.0885 14.7688 50.1553 14.6102C50.2138 14.4515 50.3724 14.0172 50.506 13.6498C50.648 13.2823 51.1073 12.038 51.5249 10.8939C51.9508 9.74146 52.3516 8.67252 52.4101 8.51385C52.8276 7.38646 53.0281 6.81023 53.0281 6.74342C53.0281 6.71002 51.9341 6.67661 50.6063 6.67661C48.7356 6.67661 48.1677 6.70167 48.1427 6.77683Z" fill="#0090FF"/>
</svg>
