<svg width="70" height="70" viewBox="0 0 70 70" fill="none" xmlns="http://www.w3.org/2000/svg">
<path d="M34.5 10C29.4566 10 24.5264 11.4955 20.333 14.2975C16.1395 17.0995 12.8711 21.0821 10.9411 25.7416C9.01105 30.4011 8.50606 35.5283 9.48999 40.4748C10.4739 45.4213 12.9025 49.965 16.4688 53.5312C20.035 57.0975 24.5787 59.5261 29.5252 60.51C34.4717 61.4939 39.5989 60.989 44.2584 59.0589C48.9179 57.1289 52.9005 53.8605 55.7025 49.667C58.5045 45.4736 60 40.5434 60 35.5C59.9937 28.7389 57.3051 22.2565 52.5243 17.4757C47.7435 12.6949 41.2611 10.0063 34.5 10ZM34.5 55.3333C30.5773 55.3333 26.7428 54.1701 23.4812 51.9908C20.2196 49.8115 17.6775 46.7139 16.1764 43.0899C14.6753 39.4658 14.2825 35.478 15.0478 31.6307C15.813 27.7834 17.702 24.2495 20.4757 21.4757C23.2495 18.702 26.7834 16.813 30.6307 16.0478C34.478 15.2825 38.4658 15.6752 42.0899 17.1764C45.714 18.6775 48.8115 21.2196 50.9908 24.4812C53.1701 27.7428 54.3333 31.5773 54.3333 35.5C54.3271 40.7582 52.2355 45.7993 48.5174 49.5174C44.7993 53.2355 39.7582 55.3271 34.5 55.3333V55.3333ZM50.5556 35.5C50.5556 36.2514 50.257 36.9721 49.7257 37.5035C49.1943 38.0348 48.4737 38.3333 47.7222 38.3333H34.5C33.7486 38.3333 33.0279 38.0348 32.4965 37.5035C31.9652 36.9721 31.6667 36.2514 31.6667 35.5V22.2778C31.6667 21.5263 31.9652 20.8057 32.4965 20.2743C33.0279 19.743 33.7486 19.4444 34.5 19.4444C35.2515 19.4444 35.9721 19.743 36.5035 20.2743C37.0348 20.8057 37.3333 21.5263 37.3333 22.2778V32.6667H47.7222C48.4737 32.6667 49.1943 32.9652 49.7257 33.4965C50.257 34.0279 50.5556 34.7485 50.5556 35.5Z" fill="#A9A9A9"/>
</svg>
