<svg width="70" height="70" viewBox="0 0 70 70" fill="none" xmlns="http://www.w3.org/2000/svg">
<!-- <path d="M61.66 51.1327C59.4889 48.9452 54.2307 45.7528 51.6795 44.4663C48.3572 42.7928 48.0838 42.6561 45.4725 44.5962C43.7307 45.8909 42.5727 47.0475 40.5342 46.6128C38.4957 46.178 34.066 43.7266 30.1873 39.8602C26.3086 35.9938 23.715 31.4356 23.2789 29.404C22.8428 27.3723 24.0186 26.228 25.301 24.4821C27.1084 22.0212 26.9717 21.611 25.4268 18.2887C24.2223 15.7047 20.9369 10.4958 18.7412 8.33561C16.3924 6.01549 16.3924 6.42565 14.8789 7.05455C13.6468 7.57297 12.4647 8.20315 11.3475 8.93717C9.15996 10.3905 7.9459 11.5977 7.09688 13.412C6.24785 15.2262 5.86641 19.4796 10.251 27.4448C14.6355 35.41 17.7117 39.4829 24.0787 45.8321C30.4457 52.1813 35.3416 55.5952 42.4988 59.6092C51.3527 64.568 54.7488 63.6014 56.5686 62.7538C58.3883 61.9061 59.601 60.703 61.057 58.5155C61.793 57.4002 62.4245 56.2194 62.9438 54.9881C63.574 53.4801 63.9842 53.4801 61.66 51.1327Z" stroke="#2D2D2D" stroke-width="4.375" stroke-miterlimit="10"/> -->
<path d="M61.66 51.1327C59.4889 48.9452 54.2307 45.7528 51.6795 44.4663C48.3572 42.7928 48.0838 42.6561 45.4725 44.5962C43.7307 45.8909 42.5727 47.0475 40.5342 46.6128C38.4957 46.178 34.066 43.7266 30.1873 39.8602C26.3086 35.9938 23.715 31.4356 23.2789 29.404C22.8428 27.3723 24.0186 26.228 25.301 24.4821C27.1084 22.0212 26.9717 21.611 25.4268 18.2887C24.2223 15.7047 20.9369 10.4958 18.7412 8.33561C16.3924 6.01549 16.3924 6.42565 14.8789 7.05455C13.6468 7.57297 12.4647 8.20315 11.3475 8.93717C9.15996 10.3905 7.9459 11.5977 7.09688 13.412C6.24785 15.2262 5.86641 19.4796 10.251 27.4448C14.6355 35.41 17.7117 39.4829 24.0787 45.8321C30.4457 52.1813 35.3416 55.5952 42.4988 59.6092C51.3527 64.568 54.7488 63.6014 56.5686 62.7538C58.3883 61.9061 59.601 60.703 61.057 58.5155C61.793 57.4002 62.4245 56.2194 62.9438 54.9881C63.574 53.4801 63.9842 53.4801 61.66 51.1327Z" stroke="#2D2D2D" stroke-width="5" stroke-miterlimit="10"/>
</svg>
