<svg width="70" height="70" viewBox="0 0 70 70" fill="none" xmlns="http://www.w3.org/2000/svg">
<path d="M35.0001 35C36.6042 35 37.978 34.4283 39.1213 33.285C40.2627 32.1436 40.8334 30.7708 40.8334 29.1667C40.8334 27.5625 40.2627 26.1887 39.1213 25.0454C37.978 23.904 36.6042 23.3333 35.0001 23.3333C33.3959 23.3333 32.0231 23.904 30.8817 25.0454C29.7384 26.1887 29.1667 27.5625 29.1667 29.1667C29.1667 30.7708 29.7384 32.1436 30.8817 33.285C32.0231 34.4283 33.3959 35 35.0001 35ZM35.0001 56.4375C40.9306 50.9931 45.3299 46.0464 48.198 41.5975C51.0661 37.1506 52.5001 33.2014 52.5001 29.75C52.5001 24.4514 50.8104 20.1124 47.4309 16.7329C44.0534 13.3554 39.9098 11.6667 35.0001 11.6667C30.0904 11.6667 25.9458 13.3554 22.5663 16.7329C19.1888 20.1124 17.5001 24.4514 17.5001 29.75C17.5001 33.2014 18.9341 37.1506 21.8022 41.5975C24.6702 46.0464 29.0695 50.9931 35.0001 56.4375ZM35.0001 63.0729C34.6112 63.0729 34.2223 63 33.8334 62.8542C33.4445 62.7083 33.1042 62.5139 32.8126 62.2708C25.7154 56 20.4167 50.1793 16.9167 44.8087C13.4167 39.4362 11.6667 34.4167 11.6667 29.75C11.6667 22.4583 14.0127 16.6493 18.7047 12.3229C23.3947 7.99653 28.8265 5.83333 35.0001 5.83333C41.1737 5.83333 46.6055 7.99653 51.2955 12.3229C55.9874 16.6493 58.3334 22.4583 58.3334 29.75C58.3334 34.4167 56.5834 39.4362 53.0834 44.8087C49.5834 50.1793 44.2848 56 37.1876 62.2708C36.8959 62.5139 36.5556 62.7083 36.1667 62.8542C35.7779 63 35.389 63.0729 35.0001 63.0729Z" fill="#A9A9A9"/>
</svg>
