<svg width="50" height="51" viewBox="0 0 50 51" fill="none" xmlns="http://www.w3.org/2000/svg">
<path d="M45.3125 7.20557C45.3002 5.92073 44.7819 4.69254 43.8701 3.78728C42.9582 2.88201 41.7263 2.37265 40.4414 2.36963L9.53516 2.27197C8.25158 2.27223 7.02049 2.78143 6.11177 3.68796C5.20305 4.59448 4.69086 5.82434 4.6875 7.10791V38.9907C4.6875 41.6567 6.86328 43.6782 9.53516 43.6782H35.9375L34.668 39.3813L45.3125 49.147V7.20557ZM31.7041 32.9175C31.7041 32.9175 30.8525 31.9028 30.1416 31.0308C33.2412 30.1577 34.4238 28.2485 34.4238 28.2485C33.5725 28.8133 32.6602 29.2801 31.7041 29.6401C30.6002 30.0985 29.4509 30.4386 28.2754 30.6548C26.2499 31.0268 24.1729 31.0189 22.1504 30.6313C20.9607 30.4104 19.7963 30.0701 18.6748 29.6157C18.0815 29.3885 17.5046 29.1206 16.9482 28.814C16.877 28.7671 16.8066 28.7437 16.7354 28.6958C16.6875 28.6724 16.6641 28.6489 16.6377 28.6489C16.2119 28.4126 15.9756 28.2476 15.9756 28.2476C15.9756 28.2476 17.1104 30.1118 20.1143 31.0073C19.4043 31.9038 18.5293 32.9419 18.5293 32.9419C13.3037 32.7769 11.3174 29.3804 11.3174 29.3804C11.3174 21.855 14.7227 15.7456 14.7227 15.7456C18.1279 13.2212 21.3438 13.2925 21.3438 13.2925L21.5801 13.5757C17.3232 14.7788 15.3848 16.6421 15.3848 16.6421C15.3848 16.6421 15.9043 16.3589 16.7793 15.981C19.3096 14.8726 21.3203 14.5894 22.1504 14.4956C22.2829 14.4681 22.4175 14.4521 22.5527 14.4478C24.1373 14.2421 25.7408 14.2264 27.3291 14.4009C29.823 14.6874 32.2391 15.4481 34.4473 16.6421C34.4473 16.6421 32.5791 14.8696 28.5586 13.6685L28.8896 13.2915C28.8896 13.2915 32.1289 13.2202 35.5117 15.7485C35.5117 15.7485 38.917 21.8579 38.917 29.3833C38.917 29.356 36.9297 32.7524 31.7041 32.9175Z" fill="black"/>
<path d="M20.708 21.9985C19.3604 21.9985 18.2959 23.1548 18.2959 24.5933C18.2959 26.0317 19.3838 27.188 20.708 27.188C22.0557 27.188 23.1201 26.0327 23.1201 24.5933C23.1445 23.1519 22.0557 21.9985 20.708 21.9985ZM29.3389 21.9985C27.9912 21.9985 26.9268 23.1548 26.9268 24.5933C26.9268 26.0317 28.0146 27.188 29.3389 27.188C30.6875 27.188 31.751 26.0327 31.751 24.5933C31.751 23.1538 30.6641 21.9985 29.3389 21.9985Z" fill="black"/>
</svg>
