<svg width="70" height="70" viewBox="0 0 70 70" fill="none" xmlns="http://www.w3.org/2000/svg">
<path d="M61.25 11.6667C61.25 10.2725 60.1446 8.75 58.3333 8.75H11.6667C9.85833 8.75 8.75 10.2638 8.75 11.6667V58.3333C8.75 60.1446 10.2667 61.25 11.6667 61.25H58.3333C59.7275 61.25 61.25 60.1446 61.25 58.3333V11.6667ZM21.3558 30.2312C20.7521 29.8054 20.4283 29.1288 20.4283 28.4404C20.4283 26.6817 22.4233 25.6346 23.8758 26.6554L34.0988 33.1742C34.6792 33.5854 35.0263 34.2504 35.0263 34.9621C35.0263 35.6767 34.6792 36.3417 34.0988 36.7529L23.8583 43.3358C22.4 44.3654 20.4108 43.3008 20.4108 41.5479C20.4108 40.8625 20.7346 40.1858 21.3383 39.76L29.0412 34.9621L21.3558 30.2312ZM49.5833 41.5275C49.5833 42.735 48.6033 43.715 47.3958 43.715H37.1875C35.9829 43.715 35 42.735 35 41.5275C35 40.32 35.9829 39.34 37.1875 39.34H47.3958C48.6033 39.34 49.5833 40.32 49.5833 41.5275Z" fill="#2D2D2D"/>
</svg>
