<svg width="70" height="70" viewBox="0 0 70 70" fill="none" xmlns="http://www.w3.org/2000/svg">
<path d="M34.9863 4.82617C18.3203 4.82617 4.8125 18.334 4.8125 35C4.8125 35.4512 4.82617 35.9023 4.83984 36.3535C3.08984 36.5859 1.72266 38.0762 1.72266 39.8945C1.72266 41.877 3.32227 43.4766 5.30469 43.4766H6.01562C9.67969 56.0137 21.2461 65.1738 34.959 65.1738C51.6113 65.1738 65.1191 51.666 65.1191 35.0137C65.1465 18.334 51.6387 4.82617 34.9863 4.82617V4.82617Z" fill="#FFD469"/>
<path d="M56.9982 42.7656C56.2462 42.6973 55.508 42.6426 54.756 42.6016C54.5509 42.6563 53.9904 42.793 53.1427 42.957C52.0627 43.1074 50.5041 43.4902 48.6447 43.668C46.7853 43.832 44.6115 44.1602 42.2873 44.2695C39.963 44.4336 37.4884 44.4609 35.0002 44.502C32.5255 44.4609 30.0373 44.4336 27.713 44.2695C25.3888 44.1465 23.215 43.832 21.3556 43.668C19.4962 43.4902 17.9513 43.1211 16.8576 42.9707C15.9962 42.8066 15.4357 42.6699 15.2443 42.6289C14.4787 42.6836 13.7267 42.7246 12.9611 42.793C12.8654 42.793 12.7834 42.834 12.7013 42.8887C12.4552 43.0664 12.3869 43.4355 12.5646 43.6953L12.9611 44.3105C13.8771 45.6914 14.7931 46.8945 15.7091 47.8926C16.6252 48.9316 17.5412 49.8066 18.4572 50.627C20.2892 52.2402 22.1212 53.4434 23.9669 54.4414C24.4728 54.7012 24.965 54.9063 25.4709 55.125C28.2599 53.1699 31.5002 55.8086 34.9728 55.8086C38.4455 55.8086 41.6994 53.1836 44.4884 55.1523C44.9806 54.9336 45.4865 54.7422 45.9787 54.4824C47.8107 53.4707 49.6427 52.2812 51.4884 50.6543C52.4044 49.8203 53.3205 48.9453 54.2365 47.9062C55.1525 46.8945 56.0685 45.7051 56.9845 44.3105L57.381 43.6953C57.4357 43.6133 57.463 43.5176 57.4767 43.4082C57.5177 43.0801 57.299 42.793 56.9982 42.7656V42.7656Z" fill="#2B3B47"/>
<path d="M21.3555 43.6543C23.2148 43.8184 25.3887 44.1465 27.7129 44.2559C30.0371 44.4199 32.5117 44.4473 35 44.4883C37.4746 44.4473 39.9629 44.4199 42.2871 44.2559C44.6113 44.1465 46.7852 43.8184 48.6445 43.6543C50.5039 43.4902 52.0488 43.1074 53.1426 42.9434C54.0039 42.7793 54.5645 42.6426 54.7559 42.5879C53.6621 42.5195 52.582 42.4512 51.502 42.3828L45.9922 42.1641C42.3281 42.041 38.6504 42.0547 34.9863 41.9863C31.3086 42.0547 27.6445 42.041 23.9805 42.1641L18.4707 42.3691C17.3906 42.4512 16.3242 42.5059 15.2441 42.5742C15.4492 42.6289 16.0098 42.7656 16.8574 42.916C17.9512 43.1074 19.4961 43.4766 21.3555 43.6543V43.6543Z" fill="white"/>
<path d="M44.4746 55.1251C44.4883 55.1251 44.4883 55.1114 44.502 55.1114C41.7129 53.1563 38.4453 53.7852 35 54.2091H34.9727C31.5273 53.7852 28.2598 53.1563 25.4707 55.1114C25.4844 55.1114 25.4844 55.1251 25.498 55.1251C25.4844 55.1251 25.4844 55.1388 25.4707 55.1388C28.5879 56.5333 31.7051 57.1895 34.8223 57.2032C34.877 57.2032 34.918 57.2169 34.9727 57.2169H35C35.0547 57.2169 35.0957 57.2032 35.1504 57.2032C38.2676 57.1895 41.3848 56.5333 44.502 55.1388C44.4883 55.1251 44.4883 55.1251 44.4746 55.1251Z" fill="#FF473E"/>
<path d="M65.1055 36.3398C65.1191 35.8887 65.1328 35.4375 65.1328 34.9863C65.1328 26.9336 61.9746 19.6055 56.8203 14.2051C59.7324 18.9219 61.4141 24.4863 61.4141 30.4473C61.4141 47.5645 47.5371 61.4414 30.4199 61.4414C24.459 61.4414 18.9082 59.7598 14.1777 56.8477C19.5918 62.002 26.9062 65.1602 34.959 65.1602C48.6719 65.1602 60.252 56 63.9023 43.4629H64.6133C66.5957 43.4629 68.1953 41.8633 68.1953 39.8809C68.2227 38.0625 66.8691 36.5723 65.1055 36.3398V36.3398Z" fill="#FFB636"/>
<path d="M46.0875 19.25C45.8414 19.25 45.5953 19.168 45.4039 18.9902C44.98 18.6074 44.939 17.9512 45.3218 17.5273C46.5113 16.1875 48.2203 15.4219 50.0113 15.4219C51.8023 15.4219 53.5113 16.1875 54.7007 17.5273C55.0835 17.9512 55.0425 18.6211 54.605 18.9902C54.1812 19.373 53.525 19.332 53.1421 18.8945C52.3492 18.0059 51.2144 17.4863 50.0113 17.4863C48.8082 17.4863 47.6734 17.9922 46.8804 18.8945C46.6617 19.1406 46.3746 19.25 46.0875 19.25V19.25Z" fill="#F2A74E"/>
<path d="M49.998 22.791C51.8301 22.791 53.3066 24.2676 53.3066 26.0996V33.5234C53.3066 35.3555 51.8301 36.832 49.998 36.832C48.166 36.832 46.6895 35.3555 46.6895 33.5234V26.0996C46.6895 24.2812 48.1797 22.791 49.998 22.791Z" fill="#2B3B47"/>
<path d="M16.064 19.25C15.8179 19.25 15.5718 19.168 15.3804 18.9902C14.9566 18.6074 14.9156 17.9512 15.2984 17.5273C16.4878 16.1875 18.1968 15.4219 19.9878 15.4219C21.7789 15.4219 23.4878 16.1875 24.6773 17.5273C25.0601 17.9512 25.0191 18.6211 24.5816 18.9902C24.1578 19.373 23.4878 19.332 23.1187 18.8945C22.3257 18.0059 21.191 17.4863 19.9878 17.4863C18.7847 17.4863 17.65 17.9922 16.857 18.8945C16.6382 19.1406 16.3511 19.25 16.064 19.25V19.25Z" fill="#F2A74E"/>
<path d="M19.9746 22.791C21.8066 22.791 23.2832 24.2676 23.2832 26.0996V33.5234C23.2832 35.3555 21.8066 36.832 19.9746 36.832C18.1426 36.832 16.666 35.3555 16.666 33.5234V26.0996C16.666 24.2812 18.1426 22.791 19.9746 22.791Z" fill="#2B3B47"/>
</svg>
