<svg width="29" height="29" viewBox="0 0 29 29" fill="none" xmlns="http://www.w3.org/2000/svg">
<!-- <path d="M19.6937 4.46387C16.0709 4.46387 14.2852 8.0353 14.2852 8.0353C14.2852 8.0353 12.4995 4.46387 8.87669 4.46387C5.93249 4.46387 3.60102 6.92704 3.57088 9.86621C3.5095 15.9672 8.41073 20.3059 13.7829 23.9521C13.931 24.0529 14.106 24.1068 14.2852 24.1068C14.4643 24.1068 14.6393 24.0529 14.7874 23.9521C20.1591 20.3059 25.0603 15.9672 24.9995 9.86621C24.9693 6.92704 22.6378 4.46387 19.6937 4.46387V4.46387Z" fill="transparent" stroke="black" stroke-width="1.42857" stroke-linecap="round" stroke-linejoin="round"/> -->
<path d="M19.6937 4.46387C16.0709 4.46387 14.2852 8.0353 14.2852 8.0353C14.2852 8.0353 12.4995 4.46387 8.87669 4.46387C5.93249 4.46387 3.60102 6.92704 3.57088 9.86621C3.5095 15.9672 8.41073 20.3059 13.7829 23.9521C13.931 24.0529 14.106 24.1068 14.2852 24.1068C14.4643 24.1068 14.6393 24.0529 14.7874 23.9521C20.1591 20.3059 25.0603 15.9672 24.9995 9.86621C24.9693 6.92704 22.6378 4.46387 19.6937 4.46387V4.46387Z" fill="transparent" stroke="black" stroke-width="1" stroke-linecap="round" stroke-linejoin="round"/>
</svg>
