<svg width="70" height="70" viewBox="0 0 70 70" fill="none" xmlns="http://www.w3.org/2000/svg">
<path d="M35 63.4369C50.7056 63.4369 63.4375 50.705 63.4375 34.9994C63.4375 19.2939 50.7056 6.56195 35 6.56195C19.2944 6.56195 6.56247 19.2939 6.56247 34.9994C6.56247 50.705 19.2944 63.4369 35 63.4369Z" stroke="#2D2D2D" stroke-width="4.37584" stroke-miterlimit="10"/>
<path d="M25.1561 34.9994C26.9683 34.9994 28.4374 33.5303 28.4374 31.7181C28.4374 29.906 26.9683 28.4369 25.1561 28.4369C23.3439 28.4369 21.8749 29.906 21.8749 31.7181C21.8749 33.5303 23.3439 34.9994 25.1561 34.9994Z" fill="#2D2D2D"/>
<path d="M35.0066 52.4998C28.7968 52.4998 23.5742 48.4625 21.9213 42.9527C21.875 42.7887 21.8677 42.6162 21.9 42.4489C21.9322 42.2817 22.0031 42.1242 22.1069 41.9892C22.2107 41.8541 22.3447 41.7452 22.4981 41.6711C22.6515 41.597 22.8201 41.5597 22.9904 41.5623H47.0105C47.1809 41.5597 47.3494 41.597 47.5028 41.6711C47.6562 41.7452 47.7902 41.8541 47.894 41.9892C47.9978 42.1242 48.0687 42.2817 48.1009 42.4489C48.1332 42.6162 48.1259 42.7887 48.0797 42.9527C46.4404 48.4625 41.2164 52.4998 35.0066 52.4998Z" fill="#2D2D2D"/>
<path d="M44.8439 34.9994C46.6561 34.9994 48.1252 33.5303 48.1252 31.7181C48.1252 29.906 46.6561 28.4369 44.8439 28.4369C43.0317 28.4369 41.5627 29.906 41.5627 31.7181C41.5627 33.5303 43.0317 34.9994 44.8439 34.9994Z" fill="#2D2D2D"/>
</svg>
