<svg width="60" height="60" viewBox="0 0 60 60" fill="none" xmlns="http://www.w3.org/2000/svg">
<path fill-rule="evenodd" clip-rule="evenodd" d="M20.2671 22.7251C19.0466 22.0676 17.51 22.9485 17.51 24.3775C17.51 24.9675 17.7875 25.5475 18.305 25.9125L24.8925 29.9675L18.29 34.08C18.2891 34.0806 18.2883 34.0812 18.2874 34.0818C17.7716 34.447 17.495 35.026 17.495 35.6125C17.495 37.0439 19.0425 37.9398 20.2697 37.2584C20.3307 37.2245 20.3909 37.1868 20.45 37.145L29.2275 31.5025C29.6369 31.2124 29.9109 30.775 29.9951 30.2879C30.0132 30.1831 30.0225 30.076 30.0225 29.9675C30.0225 29.3575 29.725 28.7875 29.2275 28.435L20.465 22.8475C20.4002 22.802 20.3341 22.7612 20.2671 22.7251ZM31.875 33.72C31.5455 33.72 31.2353 33.8056 30.9657 33.9557C30.9261 33.9778 30.8874 34.0012 30.8497 34.026C30.3724 34.3389 30.0455 34.8636 30.0044 35.4662C30.0015 35.5088 30 35.5517 30 35.595C30 36.63 30.8425 37.47 31.875 37.47H40.625C41.66 37.47 42.5 36.63 42.5 35.595C42.5 34.56 41.66 33.72 40.625 33.72H31.875ZM50 3.74573C53.9659 3.74573 56.2543 7.0887 56.2543 10V50C56.2543 53.9659 52.9113 56.2543 50 56.2543H10C7.07884 56.2543 3.74573 53.9615 3.74573 50V10C3.74573 7.07124 6.04566 3.74573 10 3.74573H50ZM50 7.50001C51.5525 7.50001 52.5 8.80501 52.5 10V50C52.5 51.5525 51.195 52.5 50 52.5H10C8.80001 52.5 7.50001 51.5525 7.50001 50V10C7.50001 8.79751 8.45001 7.50001 10 7.50001H50Z" fill="#2D2D2D"/>
</svg>
