<svg width="70" height="70" viewBox="0 0 70 70" fill="none" xmlns="http://www.w3.org/2000/svg">
<!-- <path d="M17.5 41.5625C21.1244 41.5625 24.0625 38.6244 24.0625 35C24.0625 31.3756 21.1244 28.4375 17.5 28.4375C13.8756 28.4375 10.9375 31.3756 10.9375 35C10.9375 38.6244 13.8756 41.5625 17.5 41.5625Z" stroke="#2D2D2D" stroke-width="4.375" stroke-linecap="round" stroke-linejoin="round"/>
<path d="M52.5 21.875C56.1244 21.875 59.0625 18.9369 59.0625 15.3125C59.0625 11.6881 56.1244 8.75 52.5 8.75C48.8756 8.75 45.9375 11.6881 45.9375 15.3125C45.9375 18.9369 48.8756 21.875 52.5 21.875Z" stroke="#2D2D2D" stroke-width="4.375" stroke-linecap="round" stroke-linejoin="round"/>
<path d="M52.5 61.25C56.1244 61.25 59.0625 58.3119 59.0625 54.6875C59.0625 51.0631 56.1244 48.125 52.5 48.125C48.8756 48.125 45.9375 51.0631 45.9375 54.6875C45.9375 58.3119 48.8756 61.25 52.5 61.25Z" stroke="#2D2D2D" stroke-width="4.375" stroke-linecap="round" stroke-linejoin="round"/>
<path d="M23.2188 38.2168L46.7809 51.4703M46.7809 18.5293L23.2188 31.7828" stroke="#2D2D2D" stroke-width="4.375" stroke-linecap="round" stroke-linejoin="round"/> -->

<path d="M17.5 41.5625C21.1244 41.5625 24.0625 38.6244 24.0625 35C24.0625 31.3756 21.1244 28.4375 17.5 28.4375C13.8756 28.4375 10.9375 31.3756 10.9375 35C10.9375 38.6244 13.8756 41.5625 17.5 41.5625Z" stroke="#2D2D2D" stroke-width="5" stroke-linecap="round" stroke-linejoin="round"/>
<path d="M52.5 21.875C56.1244 21.875 59.0625 18.9369 59.0625 15.3125C59.0625 11.6881 56.1244 8.75 52.5 8.75C48.8756 8.75 45.9375 11.6881 45.9375 15.3125C45.9375 18.9369 48.8756 21.875 52.5 21.875Z" stroke="#2D2D2D" stroke-width="5" stroke-linecap="round" stroke-linejoin="round"/>
<path d="M52.5 61.25C56.1244 61.25 59.0625 58.3119 59.0625 54.6875C59.0625 51.0631 56.1244 48.125 52.5 48.125C48.8756 48.125 45.9375 51.0631 45.9375 54.6875C45.9375 58.3119 48.8756 61.25 52.5 61.25Z" stroke="#2D2D2D" stroke-width="5" stroke-linecap="round" stroke-linejoin="round"/>
<path d="M23.2188 38.2168L46.7809 51.4703M46.7809 18.5293L23.2188 31.7828" stroke="#2D2D2D" stroke-width="5" stroke-linecap="round" stroke-linejoin="round"/>
</svg>
